<svg xmlns="http://www.w3.org/2000/svg" xmlns:xlink="http://www.w3.org/1999/xlink" width="30" height="19" version="1.1" viewBox="0 0 30 19"><title>thefactory/element/icons/icnthefactory/element/icons/icn-148</title><desc>Created with Sketch.</desc><g id="Ressources" fill="none" fill-rule="evenodd" stroke="none" stroke-width="1"><g id="thefactory/element/icn/inc-artboard" fill="#000" fill-rule="nonzero" transform="translate(-481.000000, -165.000000)"><path id="Shape" d="M481.495499,183 L498.499447,183 C499.179605,183 499.146597,184 498.499447,184 L481.495499,184 C480.850349,184 480.822342,183 481.495499,183 Z M481.495499,177 L510.502234,177 C511.17539,177 511.156386,178 510.502234,178 L481.495499,178 C480.845348,178 480.825343,177 481.495499,177 Z M481.495499,171 L498.499447,171 C499.149598,171 499.179605,172 498.499447,172 L481.495499,172 C480.840347,172 480.829344,171 481.495499,171 Z M481.495499,165 L510.502234,165 C511.162387,165 511.162387,166 510.502234,166 L481.495499,166 C480.842347,166 480.830344,165 481.495499,165 Z"/></g></g></svg>