<svg xmlns="http://www.w3.org/2000/svg" xmlns:xlink="http://www.w3.org/1999/xlink" width="18" height="30" version="1.1" viewBox="0 0 18 30"><title>thefactory/element/icons/icnthefactory/element/icons/icn-74</title><desc>Created with Sketch.</desc><g id="Ressources" fill="none" fill-rule="evenodd" stroke="none" stroke-width="1"><g id="thefactory/element/icn/inc-artboard" fill="#000" fill-rule="nonzero" transform="translate(-397.000000, -544.000000)"><path id="Shape" d="M399.5,570 L412.5,570 C412.8,570 413,569.8 413,569.5 C413,569.2 412.8,569 412.5,569 L399.5,569 C399.2,569 399,569.2 399,569.5 C399,569.8 399.2,570 399.5,570 Z M404.5,572 L407.5,572 C407.8,572 408,571.8 408,571.5 C408,571.2 407.8,571 407.5,571 L404.5,571 C404.2,571 404,571.2 404,571.5 C404,571.8 404.2,572 404.5,572 Z M399.5,548 L412.5,548 C412.8,548 413,548.2 413,548.5 C413,548.8 412.8,549 412.5,549 L399.5,549 C399.2,549 399,548.8 399,548.5 C399,548.2 399.2,548 399.5,548 Z M404.5,546 L407.5,546 C407.8,546 408,546.2 408,546.5 C408,546.8 407.8,547 407.5,547 L404.5,547 C404.2,547 404,546.8 404,546.5 C404,546.2 404.2,546 404.5,546 Z M398.5,544 C397.7,544 397,544.7 397,545.5 L397,572.5 C397,573.3 397.7,574 398.5,574 L413.5,574 C414.3,574 415,573.3 415,572.5 L415,545.5 C415,544.7 414.3,544 413.5,544 L398.5,544 Z M398.5,545 L413.5,545 C413.8,545 414,545.2 414,545.5 L414,572.5 C414,572.8 413.8,573 413.5,573 L398.5,573 C398.2,573 398,572.8 398,572.5 L398,545.5 C398,545.2 398.2,545 398.5,545 Z"/></g></g></svg>